 http://www.imdb.com/title/tt0446029/
RUSSIAN AUDIO
 
http://shareimage.ro/images/fb1ccjc66n7fho9fdugm.png


Format : AVI
Format/Info : Audio Video Interleave
File size : 701 MiB
Duration : 1h 45mn
Overall bit rate : 933 Kbps
Writing application : VirtualDubMod 1.5.10.2 (build 2540/release)
Writing library : VirtualDubMod build 2540/release

Video
Format : MPEG-4 Visual
Format profile : Streaming Video@L1
Format settings, BVOP : Yes
Format settings, QPel : No
Format settings, GMC : No warppoints
Format settings, Matrix : Custom
Codec ID : XVID
Codec ID/Hint : XviD
Duration : 1h 45mn
Bit rate : 795 Kbps
Width : 720 pixels
Height : 368 pixels
Display aspect ratio : 1.957
Frame rate : 25.000 fps
Resolution : 24 bits
Colorimetry : 4:2:0
Scan type : Progressive
Bits/(Pixel*Frame) : 0.120
Stream size : 597 MiB (85%)
Writing library : XviD 1.2.1 (UTC 2008-12-04)

Audio RUSSIAN
Format : AC-3
Format/Info : Audio Coding 3
Codec ID : 2000
Duration : 1h 45mn
Bit rate mode : Constant
Bit rate : 128 Kbps
Channel(s) : 2 channels
Channel positions : L R
Sampling rate : 48.0 KHz
Stream size : 96.2 MiB (14%)
Alignment : Aligned on interleaves
Interleave, duration : 40 ms (1.00 video frame)
Interleave, preload duration : 512 ms

Thanks to pitic